<?xml version="1.0" standalone="no"?>
<!DOCTYPE svg PUBLIC "-//W3C//DTD SVG 20010904//EN"
 "http://www.w3.org/TR/2001/REC-SVG-20010904/DTD/svg10.dtd">
<svg version="1.0" xmlns="http://www.w3.org/2000/svg"
 width="474.000000pt" height="340.000000pt" viewBox="0 0 474.000000 340.000000"
 preserveAspectRatio="xMidYMid meet">

<g transform="translate(0.000000,340.000000) scale(0.100000,-0.100000)"
fill="#000000" stroke="none">
<path d="M0 1705 l0 -1695 2370 0 2370 0 0 1695 0 1695 -2370 0 -2370 0 0
-1695z m1750 785 c58 -12 136 -33 173 -46 40 -14 91 -24 123 -24 l54 0 0 -190
0 -190 -24 0 c-14 0 -26 7 -29 18 -4 9 -17 35 -29 57 -132 230 -283 325 -511
325 -98 0 -223 -22 -276 -48 -25 -12 -49 -22 -53 -22 -16 0 -113 -77 -152
-121 -42 -47 -106 -142 -106 -157 0 -5 -12 -35 -26 -66 l-25 -56 -105 0 c-77
0 -104 3 -104 13 0 17 66 143 93 179 12 16 54 62 93 102 110 113 212 172 385
219 129 36 127 36 279 33 94 -2 167 -10 240 -26z m1178 -42 c-3 -20 -10 -24
-64 -28 -47 -4 -68 -11 -95 -34 -19 -16 -37 -40 -40 -55 -4 -14 -7 -101 -8
-193 l-1 -168 -110 0 -110 0 0 169 c0 92 -5 181 -10 197 -15 41 -73 78 -134
84 -43 4 -51 8 -54 28 l-3 22 316 0 316 0 -3 -22z m1212 3 c0 -23 -19 -31 -72
-31 -51 0 -100 -29 -127 -76 -19 -32 -21 -51 -21 -205 l0 -169 -54 0 -53 0 -5
153 c-4 132 -8 159 -27 198 -30 59 -80 91 -156 98 -53 5 -60 9 -63 29 l-3 22
290 0 c279 0 291 -1 291 -19z m-3310 -556 c0 -18 5 -18 31 -5 23 13 59 -3 59
-26 0 -11 5 -14 17 -10 16 6 16 6 0 -12 -9 -10 -17 -26 -17 -35 0 -8 -7 -23
-17 -32 -25 -25 -6 -68 32 -75 28 -5 30 -8 36 -63 8 -69 19 -85 43 -62 21 21
20 11 -1 -23 -38 -57 -106 -100 -165 -101 -14 -1 -28 5 -31 12 -3 9 -7 9 -20
-1 -37 -31 -141 33 -184 114 -27 51 -32 148 -9 180 13 17 15 17 21 3 3 -9 23
-24 44 -34 30 -13 38 -22 39 -43 1 -69 62 -222 62 -157 0 9 10 31 23 48 13 18
29 44 35 60 11 26 9 29 -30 57 -23 17 -54 30 -70 30 -16 0 -31 6 -34 15 -4 8
-13 15 -21 15 -8 0 -13 6 -10 13 2 6 13 11 25 9 13 -2 23 4 27 18 3 11 13 20
20 20 8 0 26 11 41 23 36 31 25 50 -24 42 -36 -6 -36 -6 -13 8 13 8 32 12 41
10 10 -3 21 0 24 6 10 16 26 13 26 -4z m635 -19 c38 -13 40 -16 43 -60 2 -25
-1 -46 -6 -46 -5 0 -23 20 -40 44 -38 53 -90 71 -163 55 -61 -13 -101 -54
-123 -124 -19 -60 -16 -93 17 -163 26 -56 105 -112 159 -112 43 0 121 43 139
77 7 13 16 23 20 23 10 0 3 -23 -19 -67 -19 -37 -52 -46 -169 -46 -61 1 -79 5
-115 28 -24 15 -57 46 -73 69 -27 37 -30 48 -30 116 1 63 5 81 27 115 35 56
60 75 120 97 59 21 142 18 213 -6z m300 4 c4 -6 -6 -10 -22 -10 -53 0 -54 -2
-51 -196 l3 -179 71 -3 c69 -3 71 -2 108 34 34 33 38 34 31 13 -4 -13 -14 -36
-22 -51 l-14 -28 -157 1 c-86 1 -148 4 -137 6 52 13 55 24 55 209 0 161 -1
174 -19 184 -11 5 -29 10 -41 10 -12 0 -18 5 -15 10 3 6 50 10 105 10 55 0
102 -4 105 -10z m335 0 c0 -5 -8 -10 -18 -10 -36 0 -42 -20 -42 -144 0 -67 5
-138 10 -158 11 -38 50 -70 101 -83 39 -10 108 13 141 45 l28 28 0 150 0 150
-30 7 c-55 12 -31 25 45 25 74 0 99 -12 50 -24 -25 -6 -25 -7 -25 -127 0 -152
-11 -196 -60 -244 l-39 -38 -85 0 c-70 1 -92 5 -122 23 -66 41 -74 66 -74 228
l0 143 -30 13 c-17 7 -27 15 -23 19 11 11 173 8 173 -3z m611 -1 c54 -19 69
-37 69 -86 0 -34 -6 -49 -23 -65 l-23 -20 38 -38 c30 -30 38 -45 38 -74 0 -49
-13 -71 -62 -106 l-41 -30 -141 1 c-93 0 -132 4 -113 9 57 17 57 18 57 210 0
190 0 190 -51 190 -10 0 -19 5 -19 10 0 14 229 13 271 -1z m469 2 c0 -5 -11
-12 -25 -15 l-25 -6 0 -141 c0 -168 8 -190 78 -220 73 -31 154 -8 192 54 17
27 20 51 20 155 0 109 -2 124 -20 142 -11 11 -27 20 -35 20 -8 0 -15 5 -15 10
0 6 32 10 75 10 74 0 99 -12 50 -24 -25 -6 -25 -6 -25 -130 0 -148 -16 -207
-67 -250 -32 -27 -40 -29 -117 -29 -93 1 -128 14 -170 63 -26 31 -26 34 -26
185 l0 153 -25 6 c-51 13 -23 26 55 26 44 0 80 -4 80 -9z m510 0 c0 -5 -9 -11
-20 -14 -19 -5 -20 -14 -20 -196 0 -189 0 -192 23 -201 16 -6 3 -9 -51 -9 -67
-1 -72 0 -58 15 13 13 16 46 16 201 0 176 -1 185 -20 190 -44 12 -16 23 55 23
41 0 75 -4 75 -9z m287 -2 c48 -18 73 -56 73 -111 0 -42 -4 -53 -30 -74 -29
-25 -29 -26 -14 -57 34 -66 106 -167 120 -167 8 0 14 -4 14 -9 0 -6 -17 -7
-37 -4 -38 6 -93 47 -93 69 0 6 -7 17 -16 25 -8 7 -27 34 -40 61 -23 45 -27
48 -64 48 l-40 0 0 -77 c0 -85 3 -93 40 -110 21 -10 10 -12 -70 -12 -90 0 -93
0 -62 14 l32 14 0 186 0 186 -30 6 c-16 3 -30 9 -30 14 0 13 213 11 247 -2z
m-2962 -80 c5 -5 -2 -9 -17 -9 -14 0 -31 7 -39 16 -11 13 -9 14 17 8 16 -3 33
-11 39 -15z m-107 -431 c7 -7 12 -19 12 -28 0 -28 96 -173 152 -230 67 -67 89
-86 136 -111 20 -11 44 -24 52 -28 8 -5 51 -20 95 -32 66 -20 102 -24 205 -23
112 0 132 3 194 28 38 15 80 36 94 47 14 10 28 19 32 19 27 0 219 198 220 226
1 28 70 74 70 47 0 -12 -24 -73 -50 -128 -12 -27 -34 -75 -47 -105 -14 -30
-35 -75 -47 -100 -22 -44 -23 -45 -68 -42 -25 2 -84 -6 -132 -17 -124 -30
-311 -61 -364 -61 -128 0 -317 49 -436 113 -104 57 -216 152 -279 237 -22 31
-107 185 -107 196 0 2 58 4 128 4 86 0 132 -4 140 -12z m1822 -17 c0 -35 44
-142 78 -191 117 -168 329 -246 562 -207 164 27 279 94 358 209 33 48 72 152
72 193 0 24 3 25 55 25 50 0 55 -2 55 -22 0 -23 -19 -90 -38 -138 -34 -85 -46
-110 -54 -110 -4 0 -8 -6 -8 -14 0 -20 -85 -111 -135 -145 -121 -82 -249 -116
-425 -115 -188 2 -389 46 -470 104 -16 11 -31 20 -35 20 -11 0 -88 63 -128
105 -64 67 -117 195 -117 282 l0 33 115 0 115 0 0 -29z"/>
<path d="M2580 1796 l0 -76 53 0 c64 0 87 19 87 71 -1 52 -20 69 -84 76 l-56
6 0 -77z"/>
<path d="M2580 1605 c0 -81 3 -100 18 -111 43 -33 126 6 137 64 15 78 -24 127
-109 138 l-46 7 0 -98z"/>
<path d="M3850 1771 l0 -101 45 0 c35 0 49 5 69 26 64 69 30 160 -63 171 l-51
6 0 -102z"/>
</g>
</svg>
